HIERARCHY
ROOT Pelvis
{
	OFFSET 0.000000 0.000000 0.000000
	CHANNELS 6 Xposition Yposition Zposition Xrotation Yrotation Zrotation
	JOINT LeftUpLeg_virtual
	{
		OFFSET 0.000000 0.000000 0.000000
		CHANNELS 3 Xrotation Yrotation Zrotation
		JOINT LeftUpLeg
		{
			OFFSET 18.735201 -5.666702 -4.541200
			CHANNELS 3 Xrotation Yrotation Zrotation
			JOINT LeftLeg
			{
				OFFSET -0.021200 -31.938179 0.493100
				CHANNELS 3 Xrotation Yrotation Zrotation
				JOINT LeftFoot
				{
					OFFSET 0.021200 -31.938179 -4.336299
					CHANNELS 3 Xrotation Yrotation Zrotation
					JOINT LeftToeBase
					{
						OFFSET 0.943001 -26.722000 15.023500
						CHANNELS 3 Xrotation Yrotation Zrotation
						End Site
						{
							OFFSET 0 0 0
						}
					}
				}
			}
		}
	}
	JOINT RightUpLeg_virtual
	{
		OFFSET 0.000000 0.000000 0.000000
		CHANNELS 3 Xrotation Yrotation Zrotation
		JOINT RightUpLeg
		{
			OFFSET -18.735201 -5.666702 -4.541200
			CHANNELS 3 Xrotation Yrotation Zrotation
			JOINT RightLeg
			{
				OFFSET 0.018946 -31.938133 0.493100
				CHANNELS 3 Xrotation Yrotation Zrotation
				JOINT RightFoot
				{
					OFFSET -0.018946 -31.938126 -4.336299
					CHANNELS 3 Xrotation Yrotation Zrotation
					JOINT RightToeBase
					{
						OFFSET -0.943001 -26.722004 15.023500
						CHANNELS 3 Xrotation Yrotation Zrotation
						End Site
						{
							OFFSET 0 0 0
						}
					}
				}
			}
		}
	}
	JOINT Hips_virtual
	{
		OFFSET 0.000000 0.000000 0.000000
		CHANNELS 3 Xrotation Yrotation Zrotation
		JOINT Hips
		{
			OFFSET -0.000000 -0.000000 -0.000000
			CHANNELS 3 Xrotation Yrotation Zrotation
			JOINT Spine
			{
				OFFSET 0.000000 10.199997 -0.299500
				CHANNELS 3 Xrotation Yrotation Zrotation
				JOINT Spine1
				{
					OFFSET 0.000000 11.900002 -1.516600
					CHANNELS 3 Xrotation Yrotation Zrotation
					JOINT Spine2
					{
						OFFSET 0.000000 13.600006 -2.842500
						CHANNELS 3 Xrotation Yrotation Zrotation
						JOINT Neck_virtual
						{
							OFFSET 0.000000 0.000000 0.000000
							CHANNELS 3 Xrotation Yrotation Zrotation
							JOINT Neck
							{
								OFFSET 0.000000 9.624100 -2.890100
								CHANNELS 3 Xrotation Yrotation Zrotation
								JOINT Head
								{
									OFFSET 0.000000 14.068802 -1.351900
									CHANNELS 3 Xrotation Yrotation Zrotation
									End Site
									{
										OFFSET 0 0 0
									}
								}
							}
						}
						JOINT LeftShoulder_virtual
						{
							OFFSET 0.000000 0.000000 0.000000
							CHANNELS 3 Xrotation Yrotation Zrotation
							JOINT LeftShoulder
							{
								OFFSET 15.263000 10.923401 -0.547700
								CHANNELS 3 Xrotation Yrotation Zrotation
								JOINT LeftArm
								{
									OFFSET 25.438599 -2.830597 -13.032500
									CHANNELS 3 Xrotation Yrotation Zrotation
									JOINT LeftForeArm
									{
										OFFSET 29.960503 0.000000 0.000000
										CHANNELS 3 Xrotation Yrotation Zrotation
										JOINT LeftHand
										{
											OFFSET 27.849251 0.000000 0.000000
											CHANNELS 3 Xrotation Yrotation Zrotation
											End Site
											{
												OFFSET 0 0 0
											}
										}
									}
								}
							}
						}
						JOINT RightShoulder_virtual
						{
							OFFSET 0.000000 0.000000 0.000000
							CHANNELS 3 Xrotation Yrotation Zrotation
							JOINT RightShoulder
							{
								OFFSET -15.263000 10.923401 -0.547700
								CHANNELS 3 Xrotation Yrotation Zrotation
								JOINT RightArm
								{
									OFFSET -25.438599 -2.830597 -13.032500
									CHANNELS 3 Xrotation Yrotation Zrotation
									JOINT RightForeArm
									{
										OFFSET -29.960503 0.000000 0.000000
										CHANNELS 3 Xrotation Yrotation Zrotation
										JOINT RightHand
										{
											OFFSET -27.849251 0.000000 0.000000
											CHANNELS 3 Xrotation Yrotation Zrotation
											End Site
											{
												OFFSET 0 0 0
											}
										}
									}
								}
							}
						}
					}
				}
			}
		}
	}
}
MOTION
Frames: 9
Frame Time: 0.03333333
-4.702096 92.410461 0.417528 0.000000 0.000000 0.000000 -19.787492 -82.300071 -20.874434 -20.567462 13.666782 11.564562 34.172604 -3.163352 5.774910 -11.994727 1.916570 -9.141945 0.000000 0.000000 0.000000 -19.787492 -82.300071 -20.874434 -13.637064 -22.495710 -11.043856 26.318462 9.055215 -9.805045 -11.266457 -2.331548 13.523404 0.000000 0.000000 0.000000 -19.787492 -82.300071 -20.874434 0.000000 0.000001 0.000000 2.271228 0.104868 -0.057400 4.588850 0.048045 1.587649 0.000000 0.000000 0.000000 4.566499 0.058996 1.631779 -2.652498 3.607736 -1.809916 0.000000 0.000000 0.000000 4.566499 0.058996 1.631779 -0.232475 4.637870 -1.359673 25.122279 -77.231264 -42.206198 -0.000006 -14.145786 -0.000012 0.000000 0.000000 0.000000 4.566499 0.058996 1.631779 1.612989 4.329181 7.043630 8.595131 25.593737 60.579516 0.000019 32.803657 -0.000015 0.000000 0.000000 0.000000 
-4.713207 92.425705 0.411098 0.000000 0.000000 0.000000 -20.020094 -82.281896 -21.104251 -20.495460 13.681666 11.542085 34.109678 -3.157836 5.799494 -11.967501 1.920005 -9.153866 0.000000 0.000000 0.000000 -20.020094 -82.281896 -21.104251 -13.544540 -22.520228 -11.032545 26.240159 9.068953 -9.795812 -11.244573 -2.331694 13.521877 0.000000 0.000000 0.000000 -20.020094 -82.281896 -21.104251 0.000000 0.000000 0.000000 2.259542 0.083607 -0.048128 4.568350 0.010020 1.625758 0.000000 0.000000 0.000000 4.545688 0.020612 1.669545 -2.618795 3.622112 -1.854555 0.000000 0.000000 0.000000 4.545688 0.020612 1.669545 -0.236515 4.731588 -1.616345 28.224999 -77.569092 -39.068180 0.000005 -14.159476 -0.000013 0.000000 0.000000 0.000000 4.545688 0.020612 1.669545 1.625856 4.410187 6.848791 8.546705 25.709182 60.700984 0.000006 32.649674 -0.000013 0.000000 0.000000 0.000000 
-4.722773 92.441559 0.406727 0.000000 0.000000 0.000000 -20.205839 -82.257976 -21.303862 -20.430790 13.637589 11.539664 34.062078 -3.138711 5.802501 -11.949209 1.921104 -9.170358 0.000000 0.000000 0.000000 -20.205839 -82.257976 -21.303862 -13.429389 -22.527695 -11.011134 26.127463 9.063045 -9.743816 -11.206235 -2.328407 13.506400 0.000000 0.000000 0.000000 -20.205839 -82.257976 -21.303862 0.000000 0.000000 0.000000 2.243989 0.055404 -0.018867 4.538629 -0.042541 1.674177 0.000000 0.000000 0.000000 4.515269 -0.031862 1.717976 -2.583128 3.638487 -1.901385 0.000000 0.000000 0.000000 4.515269 -0.031862 1.717976 -0.241921 4.857636 -1.946195 31.985967 -77.874047 -35.281417 -0.000003 -14.201004 0.000013 0.000000 0.000000 0.000000 4.515269 -0.031862 1.717976 1.642503 4.513233 6.629208 8.509114 25.847475 60.828456 -0.000002 32.462188 0.000006 0.000000 0.000000 0.000000 
-4.718930 92.455048 0.400869 0.000000 0.000000 0.000000 -20.234833 -82.227288 -21.353784 -20.400585 13.548036 11.526344 34.024430 -3.091047 5.816921 -11.918560 1.921712 -9.200481 0.000000 0.000000 0.000000 -20.234833 -82.227288 -21.353784 -13.337046 -22.536503 -10.983192 26.014107 9.045128 -9.688897 -11.158329 -2.326093 13.488793 0.000000 0.000000 0.000000 -20.234833 -82.227288 -21.353784 0.000000 0.000000 0.000000 2.235504 0.031431 0.028299 4.519638 -0.089366 1.726252 0.000000 0.000000 0.000000 4.495336 -0.077918 1.770642 -2.555452 3.655185 -1.946548 0.000000 0.000000 0.000000 4.495336 -0.077918 1.770642 -0.246491 4.979598 -2.258062 35.894956 -78.150943 -31.336751 -0.000003 -14.217750 -0.000006 0.000000 0.000000 0.000000 4.495336 -0.077918 1.770642 1.659758 4.618665 6.455622 8.485925 25.881233 60.941065 0.000011 32.359565 -0.000019 0.000000 0.000000 0.000000 
-4.678320 92.458145 0.379072 0.000000 0.000000 0.000000 -20.041718 -82.218074 -21.178327 -20.452797 13.461949 11.494114 34.006286 -2.993852 5.876487 -11.856809 1.925775 -9.260224 0.000000 0.000000 0.000000 -20.041718 -82.218074 -21.178327 -13.351628 -22.514014 -10.925145 25.978835 8.996006 -9.700610 -11.111639 -2.331394 13.485450 0.000000 0.000000 0.000000 -20.041718 -82.218074 -21.178327 0.000000 0.000000 0.000000 2.247196 0.029935 0.075928 4.537762 -0.095035 1.771961 0.000000 0.000000 0.000000 4.512693 -0.082144 1.817280 -2.545694 3.669476 -1.984402 0.000000 0.000000 0.000000 4.512693 -0.082144 1.817280 -0.248985 5.035890 -2.392462 39.218997 -78.480718 -27.926337 -0.000005 -14.133336 -0.000013 0.000000 0.000000 0.000000 4.512693 -0.082144 1.817280 1.673018 4.701752 6.407462 8.466732 25.643962 61.012495 -0.000002 32.534295 -0.000002 0.000000 0.000000 0.000000 
-4.572402 92.444412 0.325514 0.000000 0.000000 0.000000 -19.791615 -82.301730 -20.930030 -20.610996 13.488924 11.459697 34.010695 -2.855765 6.011845 -11.756859 1.935233 -9.360988 0.000000 0.000000 0.000000 -19.791615 -82.301730 -20.930030 -13.562211 -22.349508 -10.805172 26.111871 8.879940 -9.831448 -11.063383 -2.348953 13.504022 0.000000 0.000000 0.000000 -19.791615 -82.301730 -20.930030 0.000000 0.000001 0.000000 2.288556 0.069737 0.087357 4.616215 -0.019703 1.794978 0.000000 0.000000 0.000000 4.591257 -0.005132 1.840728 -2.559909 3.678448 -2.008740 0.000000 0.000000 0.000000 4.591257 -0.005132 1.840728 -0.250651 5.006649 -2.274221 41.725759 -78.911272 -25.218517 -0.000000 -14.003578 0.000004 0.000000 0.000000 0.000000 4.591257 -0.005132 1.840728 1.675897 4.724608 6.488809 8.406033 25.091269 61.032228 -0.000001 33.144893 -0.000010 0.000000 0.000000 0.000000 
-4.376602 92.422409 0.231764 0.000000 0.000000 0.000000 -20.043258 -82.582670 -21.147589 -20.807343 13.798224 11.428848 33.973422 -2.737825 6.276155 -11.606532 1.947635 -9.513825 0.000000 0.000000 0.000000 -20.043258 -82.582670 -21.147589 -14.005812 -21.940115 -10.601151 26.436701 8.724787 -10.112965 -10.965976 -2.378568 13.539493 0.000000 0.000000 0.000000 -20.043258 -82.582670 -21.147589 0.000000 0.000000 0.000000 2.359784 0.160212 0.012804 4.764470 0.161651 1.769683 0.000000 0.000000 0.000000 4.741216 0.176965 1.814186 -2.598886 3.680143 -2.015074 0.000000 0.000000 0.000000 4.741216 0.176965 1.814186 -0.254391 4.960598 -2.026238 43.727694 -79.241075 -22.827843 0.000001 -14.194361 0.000006 0.000000 0.000000 0.000000 4.741216 0.176965 1.814186 1.661302 4.637911 6.632725 8.241802 24.398848 60.982456 -0.000012 34.229210 0.000030 0.000000 0.000000 0.000000 
-4.068856 92.421631 0.070744 0.000000 0.000000 0.000000 -21.670519 -83.128074 -22.563159 -20.755586 14.549401 11.237822 33.524030 -2.689222 6.729109 -11.234418 1.950775 -9.767174 0.000000 0.000000 0.000000 -21.670519 -83.128074 -22.563159 -14.945391 -21.187984 -10.312213 27.429247 8.427556 -10.700700 -11.016740 -2.364462 13.216478 0.000000 0.000000 0.000000 -21.670519 -83.128074 -22.563159 0.000000 0.000000 0.000000 2.451393 0.292091 -0.181471 4.975537 0.440267 1.664655 0.000000 0.000000 0.000000 4.955972 0.453569 1.705379 -2.659315 3.674550 -2.003080 0.000000 0.000000 0.000000 4.955972 0.453569 1.705379 -0.263958 5.005627 -1.878759 44.060580 -79.355726 -21.859322 -0.000002 -14.492437 0.000009 0.000000 0.000000 0.000000 4.955972 0.453569 1.705379 1.626883 4.421348 6.799935 8.101742 23.760898 60.754198 0.000004 36.086423 -0.000006 0.000000 0.000000 0.000000 
-3.636155 92.417206 -0.185455 0.000000 0.000000 0.000000 -24.527585 -83.876697 -25.221187 -20.735443 15.393131 11.081815 33.028650 -2.594206 7.323399 -10.783550 1.960129 -10.151948 0.000000 0.000000 0.000000 -24.527585 -83.876697 -25.221187 -16.218349 -20.311815 -9.736334 28.800954 8.050376 -11.432561 -11.084004 -2.259786 12.441442 0.000000 0.000000 0.000000 -24.527585 -83.876697 -25.221187 0.000000 0.000000 0.000000 2.553273 0.436956 -0.527958 5.238243 0.766360 1.451945 0.000000 0.000000 0.000000 5.224069 0.773160 1.486619 -2.737472 3.662811 -1.977881 0.000000 0.000000 0.000000 5.224069 0.773160 1.486619 -0.279043 5.169830 -1.916526 42.066476 -77.753487 -22.972047 0.000003 -17.431778 0.000027 0.000000 0.000000 0.000000 5.224069 0.773160 1.486619 1.582228 4.132842 7.024920 7.662050 23.483471 60.522047 0.000001 37.929485 0.000014 0.000000 0.000000 0.000000 
